<?xml version="1.0" encoding="utf-8"?>
<!-- Generator: Adobe Illustrator 25.4.1, SVG Export Plug-In . SVG Version: 6.00 Build 0)  -->
<svg version="1.1" id="Capa_1" xmlns="http://www.w3.org/2000/svg" xmlns:xlink="http://www.w3.org/1999/xlink" x="0px" y="0px"
	 viewBox="0 0 357.16 298.67" style="enable-background:new 0 0 357.16 298.67;" xml:space="preserve">
<style type="text/css">
	.st0{fill:#2564AE;}
	.st1{fill:#AFB0B5;}
</style>
<g>
	<path class="st0" d="M208.16,257.49c-0.03,0.66-0.09,1.31-0.09,1.97c0,12.25,0,24.5,0,36.76c0,0.25,0,0.51,0,0.76
		c-0.01,1.68,0.17,1.64-1.52,1.64c-16.77,0-33.53,0.01-50.3,0.01c-2.57,0-5.14,0-7.71,0c-1.31,0-1.32-0.01-1.33-1.39
		c-0.01-2.73,0-5.47,0-8.2c0-9.97,0-19.95-0.01-29.92c0-0.6,0.09-1.22-0.11-1.81c0.02-0.6,0.07-1.21,0.07-1.81
		c0.01-11.35,0.01-22.7,0.01-34.04c0-0.71-0.03-1.41-0.05-2.12c0.03-0.71,0.08-1.41,0.08-2.12c0-44.75,0-89.5,0-134.25
		c0-0.46,0.03-0.91-0.01-1.37c-0.05-0.74,0.14-1.18,0.92-1.06c0.18,0.03,0.37,0,0.56,0c40.11,0,80.22,0,120.34,0
		c1.21,0,2.42,0.06,3.63,0.2c3.21,0.36,6.36,1.05,9.5,1.87c2.68,0.7,5.33,1.47,7.94,2.44c2.66,0.99,5.29,2.04,7.81,3.44
		c8.32,4.63,15.23,10.92,20.12,19.66c4.58,8.2,6.63,17.2,7.13,26.68c0.32,6.09,0,12.14-1.06,18.13
		c-2.42,13.71-8.5,25.06-18.74,33.64c-8.79,7.37-18.85,11.57-29.72,13.67c-0.83,0.16-1.66,0.25-2.49,0.39
		c-0.17,0.03-0.39,0.12-0.37,0.35c0.01,0.18,0.12,0.34,0.34,0.4c0.61,0.17,1.21,0.38,1.81,0.59c1.73,0.6,3.49,1.09,5.17,1.83
		c1.21,0.53,2.44,1.05,3.66,1.54c2.94,1.17,5.75,2.58,8.41,4.35c0.36,0.24,0.68,0.54,1.11,0.61c0.18,0.16,0.34,0.34,0.53,0.48
		c3.46,2.56,6.12,5.86,8.01,9.91c0.31,0.67,0.63,1.35,1.16,1.87c-0.04,0.67,0.38,1.12,0.66,1.64c13.23,24.2,26.46,48.39,39.69,72.59
		c0.26,0.47,0.6,0.9,0.7,1.53c-0.47,0.44-1.05,0.24-1.57,0.24c-11.16,0.02-22.32,0.02-33.48,0.03c-10.65,0-21.29-0.02-31.94,0.04
		c-1.13,0.01-1.73-0.37-2.26-1.45c-7.71-15.78-15.46-31.53-23.21-47.29c-0.28-0.58-0.49-1.21-0.94-1.67
		c-2.51-5.14-4.98-10.3-7.55-15.4c-1.18-2.34-2.46-4.64-4.01-6.75c-0.03-0.14-0.03-0.31-0.1-0.43c-2.38-3.88-4.9-7.62-8.51-10.33
		c-1.78-1.34-3.65-2.18-5.84-2.17c-5.17,0.01-10.34-0.01-15.52,0c-1,0-1.02,0.04-1.03,1.1c-0.01,2.53-0.02,5.05,0,7.58
		c0.02,2.07-0.11,4.14,0.08,6.2c-0.01,4-0.04,7.99-0.03,11.99C208.12,245.86,208.14,251.68,208.16,257.49z M227.97,164.91
		c0-0.01,0-0.02,0-0.02c5.55,0,11.11,0,16.66,0c1.93,0,3.82-0.24,5.67-0.81c6-1.87,10.19-5.78,11.74-12.54
		c0.68-2.98,0.76-6.01,0.37-9.04c-0.85-6.65-4.09-11.27-10-13.54c-2.13-0.82-4.34-1.2-6.59-1.2c-11.95-0.03-23.9-0.03-35.85-0.04
		c-1.37,0-1.37,0.01-1.38,1.49c0,0.2,0,0.4,0,0.61c-0.01,11.08-0.01,22.16-0.02,33.25c0,0.3,0.02,0.61,0,0.91
		c-0.06,0.75,0.28,1,0.92,0.94c0.32-0.03,0.65,0,0.98,0C216.3,164.91,222.14,164.91,227.97,164.91z"/>
	<path class="st1" d="M302.97,222.61c-0.53-0.52-0.85-1.2-1.16-1.87c-1.89-4.05-4.56-7.35-8.01-9.91c-0.19-0.14-0.36-0.32-0.53-0.48
		c0.41-0.24,0.81-0.49,1.23-0.72c6.46-3.59,12.55-7.79,18.07-12.92c10.07-9.36,17.23-20.79,20.93-34.66
		c2.68-10.04,3.32-20.28,2.5-30.67c-0.73-9.31-2.92-18.18-6.77-26.56c-4.78-10.39-11.67-18.84-20.13-25.86
		c-6.78-5.63-14.22-10.04-22.08-13.62c-15.98-7.26-32.74-10.97-49.88-13c-5.43-0.65-10.88-1.06-16.33-1.34
		c-8.54-0.44-17.09-0.56-25.63-0.11c-9.56,0.5-19.06,1.65-28.49,3.51c-10.99,2.18-21.74,5.26-32.21,9.5
		c-11.76,4.77-22.91,10.82-33.1,18.84c-8.34,6.56-15.72,14.17-21.47,23.51c-6.77,11-10.35,23.02-9.7,36.36
		c0.14,2.93,0.51,5.84,1.02,8.69c0.72,3.99,2.1,7.77,3.68,11.49c3.01,7.08,7.03,13.45,11.78,19.23c4.12,5.02,8.71,9.52,13.87,13.32
		c3.01,2.22,5.99,4.48,9.08,6.57c3.43,2.33,7.05,4.29,10.58,6.43c2.21,1.33,4.58,2.38,6.98,3.33c2.97,1.17,5.8,2.74,8.79,3.87
		c2.41,0.91,4.82,1.8,7.25,2.66c1.27,0.45,2.53,0.97,3.88,1.12c0.02,0.71,0.05,1.41,0.05,2.12c0,11.35,0,22.7-0.01,34.04
		c0,0.6-0.04,1.21-0.07,1.81c-4.16-0.61-8.32-1.22-12.46-1.98c-11.05-2.03-21.93-4.84-32.61-8.52
		c-16.21-5.59-31.64-13.02-46.04-22.88c-13-8.9-24.68-19.46-34.42-32.43c-7.39-9.85-13.23-20.67-17.08-32.7
		c-3.39-10.59-4.82-21.48-4.43-32.68c0.26-7.65,1.4-15.15,3.47-22.45c1.97-6.95,4.63-13.59,7.94-19.94
		c2.28-4.37,4.79-8.59,7.6-12.57c4.78-6.76,10.11-12.99,15.96-18.68c5.05-4.92,10.35-9.51,15.99-13.62
		c4.25-3.09,8.58-6.04,13.05-8.76c3.83-2.33,7.72-4.52,11.71-6.52c4.25-2.13,8.55-4.15,12.93-5.99c4.83-2.04,9.73-3.88,14.66-5.59
		c2.18-0.76,4.45-1.34,6.65-2.02c4.03-1.26,8.1-2.35,12.18-3.39c1.79-0.45,3.63-0.66,5.39-1.15c2.42-0.66,4.87-1.06,7.32-1.54
		c6.25-1.21,12.55-2.02,18.87-2.69c10.52-1.1,21.06-1.39,31.62-1.16c6.96,0.15,13.89,0.68,20.82,1.45
		c14.47,1.61,28.69,4.54,42.68,8.88c3.5,1.08,6.99,2.2,10.39,3.57c4.33,1.74,8.64,3.52,12.93,5.36c2.5,1.08,4.94,2.35,7.42,3.49
		c5.71,2.62,11.14,5.83,16.49,9.21c2.04,1.29,3.94,2.81,5.96,4.13c9.32,6.09,17.66,13.52,25.36,21.82
		c5.04,5.44,9.62,11.32,13.58,17.74c1.71,2.76,3.2,5.68,4.75,8.56c1.27,2.37,2.37,4.83,3.48,7.28c3.25,7.19,5.4,14.79,6.68,22.67
		c1.13,6.9,1.52,13.86,1.09,20.87c-1.29,21.03-8.89,39.29-20.86,55.6c-8.29,11.3-18.17,20.76-29.09,28.98
		C305.71,220.68,304.33,221.64,302.97,222.61z"/>
	<path class="st1" d="M208.16,257.49c-0.02-5.82-0.04-11.63-0.04-17.45c0-4,0.02-7.99,0.03-11.99c10.34-0.05,20.65-0.6,30.91-1.95
		c1.54,2.1,2.82,4.4,4.01,6.75c2.58,5.1,5.04,10.26,7.55,15.4c-4.52,1.56-9.12,2.79-13.74,3.96c-8.84,2.25-17.78,3.86-26.78,5.08
		C209.46,257.38,208.81,257.43,208.16,257.49z"/>
</g>
</svg>
