<?xml version="1.0" encoding="utf-8"?>
<!-- Generator: Adobe Illustrator 25.4.1, SVG Export Plug-In . SVG Version: 6.00 Build 0)  -->
<svg version="1.1" id="Capa_1" xmlns="http://www.w3.org/2000/svg" xmlns:xlink="http://www.w3.org/1999/xlink" x="0px" y="0px"
	 viewBox="0 0 117.64 60.76" style="enable-background:new 0 0 117.64 60.76;" xml:space="preserve">
<style type="text/css">
	.st0{fill:#FFFFFF;}
	.st1{fill:none;stroke:#000000;stroke-width:4;stroke-miterlimit:10;}
	.st2{fill:#E63947;}
</style>
<path class="st0" d="M11.17,0.15c9.47-0.63,18.59,1.69,26.01,8.89C53.12,24.48,47.33,50.88,26.5,58.61
	c-7.98,2.96-16.13,1.94-24.24,1.89c-2.83-0.02-2.11-3.56-2.11-5.54c0-1.8-0.57-4.31,2.55-4.27c4.61,0.05,9.22-0.03,13.83-0.24
	c10.6-0.5,18.32-8.91,18.4-19.89c0.09-11.07-7.46-19.6-18.03-20.22c-4.43-0.26-8.88-0.19-13.31-0.2c-4.08,0-3.62-1.76-3.52-4.99
	c0.07-2.28-1.03-5.1,3.33-5.05C5.78,0.14,8.18,0.15,11.17,0.15z"/>
<g>
	<path class="st0" d="M117.64,0.18c-7.05,12.21-14.45,23.35-21.87,34.47c-2.08,3.11-4.15,6.22-6.24,9.32
		c-1.38,2.05-2.21,3.01-4.11-0.05c-4.89-7.89-10.32-15.45-15.54-23.14c-0.32-0.47-0.68-0.92-1.59-2.14c0,13.3-0.24,25.56,0.12,37.81
		c0.14,4.63-2.26,4.4-5.29,4.24c-2.83-0.15-6.08,1.19-5.99-4.13c0.29-17.24,0.18-34.48,0.03-51.73c-0.03-3.45,0.84-4.61,4.53-4.8
		C67-0.24,70.42,1.01,73.07,6.12c3.5,6.77,8.18,12.93,12.22,19.43c1.61,2.59,2.64,3.04,4.45,0.06c4.14-6.83,8.92-13.28,12.74-20.28
		c2.41-4.42,5.36-5.36,10.09-5.19C114.01,0.2,115.5,0.18,117.64,0.18z"/>
	<path class="st0" d="M117.52,17.22c0,13.72-0.03,29.97,0.03,43.54c-1.18,0-0.78-0.02-2.69-0.02c-8.29,0.02-8.29,0.02-8.29,0.02
		c-0.01-1.53-0.07-12.29-0.17-14.29C106.29,33.7,106.34,27.75,117.52,17.22z"/>
</g>
</svg>
