<?xml version="1.0" encoding="utf-8"?>
<!-- Generator: Adobe Illustrator 25.4.1, SVG Export Plug-In . SVG Version: 6.00 Build 0)  -->
<svg version="1.1" id="Capa_1" xmlns="http://www.w3.org/2000/svg" xmlns:xlink="http://www.w3.org/1999/xlink" x="0px" y="0px"
	 viewBox="0 0 595.28 841.89" style="enable-background:new 0 0 595.28 841.89;" xml:space="preserve">
<g>
	<path d="M464.27,375.71c-4.63,0-8.35-0.1-12.06,0.03c-2.98,0.11-4.37-2.1-5.75-3.94c-3.55-4.73-6.85-9.65-10.18-14.54
		c-2.32-3.41-12.66-6.05-15.95-4c-1.43,0.89-1.02,2.3-1.04,3.55c-0.06,3.96,0.01,18.93,0.01,18.93c-2.06,0.04-3.43,0.11-10.31-0.1
		c-1.95-0.06-1.41-2.03-1.41-3.22c-0.05-9.05,0.1-18.11-0.1-27.16c-0.07-3.29,1.49-3.61,4.12-3.58c8.87,0.09,17.74,0.18,26.6-0.07
		c5-0.14,9.44-2.32,10.94-7.34c1.35-4.51,0.51-9.02-3.91-12.02c-2.45-1.66-5.19-2.06-8.06-2.06c-8.49,0.02-16.99-0.3-25.46,0.1
		c-5.18,0.24-4.12-2.97-4.15-5.82c-0.03-2.92-0.86-6.08,4.23-5.7c11.06,0.82,22.21-1.07,33.24,1.15
		c9.11,1.84,15.81,8.44,16.92,16.86c1.29,9.79-2.96,18.39-11.66,22.18c-3.39,1.48-3.36,2.59-1.45,5.18
		C453.9,361.05,458.81,368.06,464.27,375.71z"/>
	<path d="M326.15,308.88c-7.78,13.48-15.95,25.78-24.15,38.06c-2.29,3.43-4.59,6.87-6.89,10.29c-1.53,2.27-2.45,3.32-4.54-0.06
		c-5.4-8.71-11.39-17.06-17.16-25.55c-0.36-0.52-0.75-1.02-1.76-2.36c0,14.68-0.27,28.23,0.14,41.75c0.15,5.12-2.5,4.86-5.84,4.68
		c-3.12-0.17-6.71,1.31-6.61-4.56c0.32-19.03,0.2-38.07,0.03-57.11c-0.03-3.81,0.93-5.09,5-5.3c5.86-0.3,9.64,1.08,12.56,6.72
		c3.87,7.47,9.03,14.27,13.49,21.45c1.78,2.86,2.92,3.36,4.91,0.07c4.57-7.54,9.85-14.67,14.07-22.39
		c2.66-4.88,5.92-5.92,11.14-5.73C322.15,308.9,323.79,308.88,326.15,308.88z"/>
	<path d="M65.37,308.89c10.46-0.69,20.52,1.86,28.72,9.81c17.6,17.06,11.2,46.21-11.8,54.74c-8.81,3.27-17.81,2.14-26.76,2.09
		c-3.13-0.02-2.33-3.93-2.33-6.12c0-1.99-0.63-4.76,2.82-4.72c5.09,0.06,10.18-0.03,15.27-0.27c11.7-0.55,20.23-9.83,20.32-21.96
		c0.09-12.22-8.24-21.65-19.91-22.32c-4.89-0.28-9.81-0.21-14.69-0.22c-4.51,0-4-1.94-3.88-5.51c0.08-2.52-1.13-5.63,3.68-5.57
		C59.42,308.88,62.07,308.89,65.37,308.89z"/>
	<path d="M538.91,375.32c-12.71,1.32-12.7,1.31-16.86-9.95c-6.25-16.96-12.39-33.95-18.86-50.83c-1.81-4.73-0.9-5.61,4.12-5.94
		c6.31-0.41,8.52,2.15,10.41,7.72C524.4,335.94,531.68,355.34,538.91,375.32z"/>
	<path d="M225.85,375.43c-12.39,0.78-12.38,0.77-16.53-10.67c-6.13-16.88-12.28-33.76-18.41-50.65c-0.57-1.56-1.04-3.16-1.56-4.74
		c0.59-0.21,0.91-0.43,1.24-0.44c11.52-0.32,11.25-0.22,15.48,10.73c6.52,16.87,12.53,33.91,18.29,51.04
		C224.88,372.26,225.34,373.83,225.85,375.43z"/>
	<path d="M380.38,331.24c0-6.04,0.22-12.09-0.08-18.11c-0.18-3.65,1.19-4.45,4.54-4.35c9.47,0.28,7.82-0.7,7.76,7.84
		c-0.07,12.05,0.52,24.1-0.8,36.15c-1.2,11.02-8.59,19.86-19.13,22.38c-2.57,0.62-3.54,0.2-3.57-2.4
		c-0.05-4.64-0.73-8.85,5.35-11.38c4.97-2.06,5.74-7.97,5.89-13.15C380.5,342.57,380.38,336.9,380.38,331.24z"/>
	<path d="M348.64,332.07c0.01,5.66,0.04,11.32,0,16.98c-0.05,6.14,2.47,10.81,7.66,14.1c2.38,1.51,4.12,9.25,2.68,11.51
		c-0.99,1.54-2.23,0.71-3.48,0.41c-9.33-2.23-16.59-10.16-18.08-20.18c-2.11-14.25-0.85-28.61-1.15-42.92
		c-0.04-1.66,0.31-3.1,2.35-3.12c8.55-0.08,10.31-1.09,10.02,7.94C348.64,321.88,348.64,326.98,348.64,332.07z"/>
	<path d="M253.38,308.88c-7.04,17.3-13.84,34.03-20.65,50.77c-4.64-9.77-7.04-12.13-4.57-20.33c3.72-8.22,6.69-15.83,9.63-23.91
		c1.83-5.35,4.68-6.43,10.37-6.58C249.84,308.78,251.08,308.88,253.38,308.88z"/>
	<path d="M474.72,375.72c7.04-17.44,13.73-33.98,20.97-51.91c3.1,8.79,7.49,14.73,3.25,24.55c-3.3,7.32-6.05,14.03-8.7,21.2
		c-1.78,5.16-2.32,5.84-9.21,6.12C479.18,375.72,477.31,375.72,474.72,375.72z"/>
	<path d="M149.33,375.67c-6.97,0-13.95-0.2-20.91,0.07c-3.81,0.15-3.73-1.96-3.7-4.61c0.02-2.71-0.5-6.47,3.75-6.46
		c14.32,0.05,28.64,0.31,42.95-0.01c4.54-0.1,3.77,3.89,3.7,6.49c-0.07,2.7,0,4.73-3.76,4.6
		C164.03,375.49,156.68,375.67,149.33,375.67z"/>
	<path d="M149.9,320.22c-6.98,0-13.97-0.22-20.93,0.07c-5.09,0.21-4.01-3.17-4.15-6.04c-0.16-3.08-0.05-5.4,4.31-5.33
		c14.14,0.23,28.29,0.21,42.43,0.01c4.23-0.06,3.88,2.43,3.81,5.1c-0.07,2.78,0.75,6.34-3.97,6.24
		C164.24,320.13,157.07,320.23,149.9,320.22z"/>
	<path d="M147.64,347.36c-6.4,0-12.82-0.2-19.21,0.07c-3.79,0.16-3.76-1.97-3.74-4.63c0.02-2.66-0.63-6.49,3.75-6.44
		c12.62,0.05,25.24,0.1,37.86-0.05c4.35,0,3.63,3.49,3.62,5.93c0,2.45,0.63,5.34-3.63,5.2
		C160.07,347.23,153.85,347.36,147.64,347.36z"/>
	<path d="M326.01,327.7c0,15.15-0.03,33.09,0.03,48.07c-1.3,0-0.86-0.02-2.98-0.02c-9.15,0.02-9.15,0.02-9.15,0.02
		c-0.01-1.69-0.08-13.58-0.18-15.78C313.62,345.89,313.67,339.33,326.01,327.7z"/>
</g>
</svg>
