<?xml version="1.0" encoding="utf-8"?>
<!-- Generator: Adobe Illustrator 25.4.1, SVG Export Plug-In . SVG Version: 6.00 Build 0)  -->
<svg version="1.1" id="Capa_1" xmlns="http://www.w3.org/2000/svg" xmlns:xlink="http://www.w3.org/1999/xlink" x="0px" y="0px"
	 viewBox="0 0 440.06 60.99" style="enable-background:new 0 0 440.06 60.99;" xml:space="preserve">
<style type="text/css">
	.st0{fill:#FFFFFF;}
	.st1{fill:none;stroke:#000000;stroke-width:4;stroke-miterlimit:10;}
</style>
<g>
	<path class="st0" d="M372.45,60.82c-4.19,0-7.56-0.09-10.92,0.03c-2.7,0.1-3.96-1.9-5.21-3.57c-3.22-4.28-6.2-8.74-9.22-13.17
		c-2.1-3.09-11.47-5.48-14.45-3.62c-1.29,0.8-0.93,2.08-0.94,3.21c-0.05,3.59,0.01,17.15,0.01,17.15c-1.87,0.04-3.11,0.1-9.34-0.09
		c-1.77-0.05-1.27-1.84-1.28-2.92c-0.04-8.2,0.09-16.4-0.09-24.6c-0.06-2.98,1.35-3.27,3.73-3.25c8.03,0.08,16.07,0.16,24.09-0.06
		c4.53-0.13,8.55-2.1,9.91-6.65c1.22-4.09,0.46-8.17-3.54-10.88c-2.22-1.5-4.7-1.87-7.3-1.86c-7.69,0.02-15.39-0.27-23.06,0.09
		c-4.69,0.22-3.73-2.69-3.76-5.27c-0.03-2.65-0.78-5.51,3.83-5.17c10.01,0.74,20.12-0.97,30.11,1.04
		c8.25,1.66,14.32,7.65,15.33,15.27c1.17,8.86-2.68,16.66-10.56,20.09c-3.07,1.34-3.04,2.34-1.31,4.69
		C363.06,47.53,367.51,53.89,372.45,60.82z"/>
	<path class="st0" d="M247.36,0.29c-7.05,12.21-14.45,23.35-21.87,34.47c-2.08,3.11-4.15,6.22-6.24,9.32
		c-1.38,2.05-2.21,3.01-4.11-0.05c-4.89-7.89-10.32-15.45-15.54-23.14c-0.32-0.47-0.68-0.92-1.59-2.14c0,13.3-0.24,25.56,0.12,37.81
		c0.14,4.63-2.26,4.4-5.29,4.24c-2.83-0.15-6.08,1.19-5.99-4.13c0.29-17.24,0.18-34.48,0.03-51.73c-0.03-3.45,0.84-4.61,4.53-4.8
		c5.31-0.27,8.73,0.98,11.37,6.08c3.5,6.77,8.18,12.93,12.22,19.43c1.61,2.59,2.64,3.04,4.45,0.06c4.14-6.83,8.92-13.28,12.74-20.28
		c2.41-4.42,5.36-5.36,10.09-5.19C243.73,0.3,245.22,0.29,247.36,0.29z"/>
	<path class="st0" d="M11.17,0.3c9.47-0.63,18.59,1.69,26.01,8.89C53.12,24.63,47.33,51.03,26.5,58.76
		c-7.98,2.96-16.13,1.94-24.24,1.89c-2.83-0.02-2.11-3.56-2.11-5.54c0-1.8-0.57-4.31,2.55-4.27c4.61,0.05,9.22-0.03,13.83-0.24
		c10.6-0.5,18.32-8.91,18.4-19.89c0.09-11.07-7.46-19.6-18.03-20.22c-4.43-0.26-8.88-0.19-13.31-0.2c-4.08,0-3.62-1.76-3.52-4.99
		C0.15,3.02-0.95,0.2,3.4,0.26C5.78,0.29,8.18,0.3,11.17,0.3z"/>
	<path class="st0" d="M440.06,60.46c-11.52,1.19-11.51,1.19-15.27-9.01c-5.66-15.36-11.23-30.75-17.08-46.03
		c-1.64-4.29-0.81-5.08,3.73-5.38c5.72-0.38,7.72,1.95,9.43,6.99C426.91,24.79,433.51,42.36,440.06,60.46z"/>
	<path class="st0" d="M156.51,60.56c-11.22,0.7-11.21,0.7-14.98-9.66c-5.55-15.29-11.12-30.58-16.67-45.87
		c-0.51-1.41-0.94-2.86-1.41-4.29c0.53-0.19,0.82-0.39,1.12-0.4c10.43-0.29,10.19-0.2,14.02,9.71c5.9,15.28,11.35,30.71,16.56,46.23
		C155.64,57.69,156.06,59.11,156.51,60.56z"/>
	<path class="st0" d="M296.48,20.54c0-5.47,0.2-10.95-0.07-16.4c-0.17-3.3,1.07-4.03,4.11-3.94c8.58,0.26,7.08-0.64,7.03,7.1
		c-0.07,10.91,0.47,21.83-0.72,32.74c-1.09,9.98-7.78,17.98-17.33,20.27c-2.33,0.56-3.2,0.18-3.23-2.18
		c-0.05-4.2-0.66-8.02,4.85-10.3c4.5-1.87,5.2-7.22,5.33-11.91C296.59,30.8,296.47,25.67,296.48,20.54z"/>
	<path class="st0" d="M267.73,21.29c0.01,5.13,0.04,10.25,0,15.38c-0.05,5.56,2.24,9.79,6.94,12.77c2.16,1.37,3.74,8.38,2.42,10.42
		c-0.9,1.4-2.02,0.64-3.15,0.37c-8.45-2.02-15.03-9.2-16.37-18.27c-1.91-12.91-0.77-25.91-1.05-38.87c-0.03-1.5,0.28-2.81,2.13-2.83
		c7.74-0.07,9.34-0.99,9.08,7.19C267.73,12.06,267.73,16.68,267.73,21.29z"/>
	<path class="st0" d="M181.45,0.28c-6.37,15.67-12.54,30.82-18.7,45.98c-4.2-8.84-6.38-10.99-4.14-18.41
		c3.37-7.44,6.06-14.34,8.73-21.66c1.65-4.85,4.24-5.83,9.39-5.96C178.25,0.19,179.37,0.28,181.45,0.28z"/>
	<path class="st0" d="M381.92,60.83c6.38-15.79,12.44-30.78,18.99-47.01c2.81,7.96,6.79,13.34,2.94,22.23
		c-2.99,6.63-5.48,12.71-7.88,19.2c-1.61,4.67-2.1,5.29-8.34,5.55C385.96,60.83,384.26,60.83,381.92,60.83z"/>
	<path class="st0" d="M87.21,60.78c-6.31,0-12.63-0.18-18.94,0.07c-3.45,0.13-3.38-1.78-3.35-4.17c0.02-2.46-0.45-5.86,3.4-5.85
		c12.97,0.05,25.94,0.28,38.9-0.01c4.12-0.09,3.41,3.52,3.36,5.88c-0.06,2.44,0,4.29-3.4,4.16C100.53,60.61,93.87,60.78,87.21,60.78
		z"/>
	<path class="st0" d="M87.73,10.56c-6.32,0-12.65-0.2-18.96,0.06c-4.61,0.19-3.63-2.87-3.76-5.47c-0.14-2.79-0.04-4.89,3.9-4.83
		c12.81,0.21,25.62,0.19,38.43,0c3.83-0.06,3.52,2.2,3.45,4.62c-0.07,2.52,0.68,5.74-3.59,5.65
		C100.72,10.47,94.23,10.56,87.73,10.56z"/>
	<path class="st0" d="M85.68,35.14c-5.8,0-11.61-0.18-17.4,0.07c-3.43,0.15-3.41-1.78-3.39-4.2c0.02-2.41-0.57-5.88,3.4-5.83
		c11.43,0.04,22.86,0.09,34.29-0.05c3.94,0,3.28,3.16,3.28,5.37c0,2.22,0.57,4.84-3.29,4.71C96.94,35.02,91.31,35.14,85.68,35.14z"
		/>
	<path class="st0" d="M247.24,17.33c0,13.72-0.03,29.97,0.03,43.54c-1.18,0-0.78-0.02-2.69-0.02c-8.29,0.02-8.29,0.02-8.29,0.02
		c-0.01-1.53-0.07-12.29-0.17-14.29C236.01,33.81,236.06,27.86,247.24,17.33z"/>
</g>
</svg>
